# xmcd CD database file
#
# Track frame offsets:
#	150
#	15270
#	31675
#	43940
#	57958
#	71938
#	84696
#	92484
#	108934
#	123829
#	140379
#	157907
#	177477
#	199325
#
# Disc length: 2922 seconds
#
# Revision: 0
# Processed by: cddbd v1.5.2PL0 Copyright (c) Steve Scherf et al.
# Submitted via: CDex 1.70beta2
#
DISCID=b50b680e
DTITLE=Blind Texas Marlin - Bottles of Puss in the Black Tooth
DYEAR=2007
DGENRE=Blues
TTITLE0=The Long Line
TTITLE1=Visits From the Vamp
TTITLE2=You're No Good
TTITLE3=I Understand if You find Drinks More Convincing if They're Cold
TTITLE4=Tables Tennis and the Root
TTITLE5=A Sleep Under the Phone
TTITLE6=This One's On Me
TTITLE7=While We Burn Inside the Wire
TTITLE8=Chaplin Lips and the Shotgun Dancers
TTITLE9=Ramblin' Man
TTITLE10=Wicker Shoes and the Brass Thief
TTITLE11=The Canned Family Tree
TTITLE12=What?
TTITLE13=Pork Juice and Open Hands
EXTD=YEAR: 2007
EXTT0=
EXTT1=
EXTT2=
EXTT3=
EXTT4=
EXTT5=
EXTT6=
EXTT7=
EXTT8=
EXTT9=
EXTT10=
EXTT11=
EXTT12=
EXTT13=
PLAYORDER=
